<svg version="1.1" id="Layer_1" xmlns="http://www.w3.org/2000/svg" xmlns:xlink="http://www.w3.org/1999/xlink" x="0px" y="0px"
	 width="936.72px" height="911.268px" viewBox="0 0 936.72 911.268" enable-background="new 0 0 936.72 911.268"
	 xml:space="preserve">

	<style>
		svg{
			opacity: 0.5;
			transition: opacity 0.3s ease-in-out;
		}

		svg:hover{
			opacity: 1;
			pointer: cursor;
			animation: outline 3s ease-in-out;
		}

		path{
			stroke: white;
			stroke-width: 5;
			stroke-dasharray: 1200;
		}

		@keyframes outline{
			0%{
				stroke-dashoffset: 1200;
			}
			100%{
				stroke-dashoffset: 0;
			}
		}
	</style>
<g>

		<path fill="none" stroke="#000000" stroke-width="3.3253" stroke-linecap="round" stroke-linejoin="round" stroke-miterlimit="10" d="
		M528.955,4.246c8.701,1.993,17.033,10.326,18.286,18.287c1.179,7.479-0.995,9.135-8.309,9.284
		c-18.849,0.384-27.637-14.466-38.85-25.306c-3.27-3.16-5.737-5.073-10.199-4.826c-5.248,0.291-10.525,0.099-15.789,0.063
		c-18.099-0.125-34.929,3.685-50.863,13.031c-9.498,5.57-20.417,6.173-30.633-0.501c-6.726-4.395-14.112-6.836-22.412-5.934
		c-5.317,0.58-11.254,0.948-15.661-1.805c-10.361-6.475-21.537-4.44-32.542-4.781c-26.75-0.825-50.956,7.016-73.143,21.613
		c-19.747,12.993-32.459,31.451-40.668,53.217c-3.18,8.434-6.663,16.986-8.057,25.792c-1.185,7.501-4.539,9.376-11.13,9.183
		c-2.769-0.081-5.569,0.838-8.373,1.305c0.054,3.875,3.156,5.396,5.034,7.761c4.578,5.766,3.029,10.115-4.111,13.348
		c-6.664,3.016-13.463,5.011-20.809,4.926"/>

		<path fill-rule="evenodd" clip-rule="evenodd" fill="none" stroke="#000000" stroke-width="3.3253" stroke-linecap="round" stroke-linejoin="round" stroke-miterlimit="10" d="
		M547.241,15.882c13.104-3.972,21.562,5.929,25.621,17.508c1.928,5.49,4.445,9.814,9.167,13.412
		c3.518,2.682,5.979,6.768,8.721,10.428c9.099,12.148,22.687,18.799,36.405,24.014c9.472,3.6,18.609,7.473,26.38,13.731
		c8.555,6.89,17.165,13.407,27.51,17.387c1.819,0.7,3.455,2.026,4.991,3.289c7.469,6.139,14.217,13.284,24.079,15.938
		c1.213,0.329,3.608,1.428,3.389,3.989c-0.853,9.907,4.97,16.823,11.762,22.261c9.005,7.212,16.602,15.59,23.936,24.307
		c8.697,10.335,20.85,16.591,30.119,26.417c14.707,15.587,26.829,32.541,34.913,52.457c1.442,3.554-1.285,5.438-1.151,8.389
		c0.408,9.125,0.324,18.285,0.07,27.421c-0.118,4.28,2.13,7.281,5.142,9.014c9.859,5.676,9.253,14.3,7.383,23.4
		c-2.803,13.665,0.07,21.994,17.478,21.79c10.004-0.118,19.766,2.638,29.273,5.825c-0.979,6.698-4.987,10.129-10.182,12.226
		c-4.775,1.928-8.676,4.452-9.068,10.04c-0.311,4.382-1.028,9.759,4.17,11.438c6.053,1.954,12.354,6.663,19.015,1.801
		c4.917-3.59,9.34-7.86,14.206-11.534c4.861-3.674,8.786-1.968,9.021,4.114c0.341,8.852,0.083,17.729,0.089,26.595
		c0.003,3.686-2.36,6.443-4.268,9.062c-5.545,7.609-5.875,14.843-3.759,24.308c2.746,12.28,9.733,16.699,20.423,20.05
		c12.724,3.986,22.385,19.285,22.496,33.024c0.081,9.976-0.766,20.028,0.201,29.907c1.419,14.48-2.319,25.712-14.084,35.216
		c-7.343,5.936-12.302,14.778-18.554,22.124c-5.636,6.625-4.62,14.991-5.448,22.513c-1.066,9.698-3.268,17.939-11.994,23.198
		c-3.254,1.962-4.077,4.761-5.22,8.265c-2.768,8.461-8.255,14.792-18.026,15.919c-4.959,0.571-9.706,1.927-14.327,6.031
		c6.109,5.998,8.055,13.925,12.174,20.816c6.56,10.97,9.722,23.863,5.467,37.111c-1.306,4.066-2.369,8.237-1.6,12.462
		c2.035,11.183-3.73,19.471-10.089,27.393c-6.797,8.465-15.682,14.455-25.774,18.157c-4.664,1.711-9.983,2.112-14.919-0.613
		c-3.909-2.156-7.237-0.407-9.916,2.483c-2.892,3.123-4.163,7.286-1.57,10.675c5.595,7.31,8.983,14.704,6.839,24.276
		c-0.39,1.738-0.334,6.464,3.839,7.409"/>

		<path fill-rule="evenodd" clip-rule="evenodd" fill="none" stroke="#000000" stroke-width="3.3253" stroke-linecap="round" stroke-linejoin="round" stroke-miterlimit="10" d="
		M305.358,786.418c-1.244,9.562-1.82,18.696,5.579,26.818c2.328,2.553,1.293,7.278-0.363,11.506
		c-4.276,10.914-5.102,22.452,0.757,33.075c4.212,7.64,3.899,14.455-0.133,21.707c-3.25,5.846-5.339,12.179-6.602,18.704
		c-1.051,5.436-4.458,6.871-9.202,6.159c-3.374-0.508-6.712-1.434-9.973-2.469c-5.481-1.737-10.758-1.372-14.899,2.609
		c-5.971,5.741-12.818,5.892-19.996,3.975c-3.383-0.902-7.166-1.654-9.915-0.517c-9.896,4.101-15.803-1.146-21.738-7.659
		c-6.202-6.806-12.949-13.124-18.975-20.075c-2.888-3.328-5.918-6.96-4.34-12.399c3.566-12.292-0.838-22.867-8.29-32.349
		c-5.652-7.192-8.212-15.173-7.35-24.144c0.474-4.92-0.525-9.691-1.941-14.07c-2.382-7.365,0.08-13.461,4.531-18.195
		c7.633-8.115,11.984-19.611,23.892-23.562c2.89-0.957,4.364-4.187,3.285-7.32c-1.414-4.114-4.764-6.37-9.063-6.622
		c-4.419-0.26-8.909-0.461-13.286,0.032c-7.373,0.83-14.7-0.789-21.513-2.257c-6.979-1.503-12.508-0.33-18.38,2.202
		c-3.409,1.469-6.544,3.618-10.012,4.895c-14.292,5.266-27.784-4.664-27.483-19.895c0.056-2.913,0.572-5.461,2.598-7.448
		c3.496-3.433,7.175-6.681,10.779-10.008c-0.574-6.163-4.171-8.236-9.981-7.509c-1.637,0.204-3.385,0.323-4.971-0.025
		c-4.794-1.045-8.788-2.147-6.877-9.145c1.765-6.469-1.702-8.63-8.082-5.729c-5.351,2.435-10.824,4.165-16.617,2.385
		c-4.204-1.293-7.521-3.743-6.683-9.068c2.361-14.99-2.83-23.477-18.023-29.707c-18.606-7.628-26.346-25.482-28.385-45.111
		c-0.579-5.566-2.046-9.547-7.575-11.716c-3.12-1.225-5.516-4.938-5.527-7.393c-0.03-6.197-2.996-10.269-6.99-14.116
		c-2.694-2.592-2.259-5.562-0.744-8.282c1.65-2.962,2.355-7.11,4.318-8.93c6.872-6.367,6.841-13.002,4.057-21.084
		c-2.387-6.923,3.056-10.467,8.242-12.219c6.977-2.356,8.52-7.301,9.094-13.5c1.193-12.864,3.566-15.161,15.756-17.55
		c6.24-1.224,10.979-4.942,12.448-11.552c1.469-6.614-2.067-14.609-8.334-17.308c-4.881-2.103-10.055-1.929-13.655,3.186"/>

		<path fill-rule="evenodd" clip-rule="evenodd" fill="none" stroke="#000000" stroke-width="3.3253" stroke-linecap="round" stroke-linejoin="round" stroke-miterlimit="10" d="
		M317.827,424.841c7.874,2.974,15.776,0.322,23.218-1.118c18.332-3.547,35.108,1.367,52.5,5.797
		c20.394,5.194,33.047,20.459,48.11,32.751c2.283,1.865,2.277,4.956,2.41,7.46c1.257,23.646-2.663,45.897-13.703,67.486
		c-13.494,26.39-36.031,38.793-62.685,46.304c-9.034,2.545-18.265-0.2-27.407-0.306c-31.687-0.362-49.301-22.023-67.463-43.555
		c-13.688-16.227-12.246-35.287-12.199-54.143c0.033-13.493,7.247-23.579,16.051-33.634c5.25-5.994,10.328-11.179,16.865-15.695
		c4.333-2.994,8.385-5.23,13.47-6.474c10.721-2.62,14.707-8.013,13.208-18.157c-1.058-7.162,1.897-10.873,7.427-15.199
		c17.667-13.822,31.919-30.318,35.091-53.809c1.021-7.562,6.214-12.523,12.543-14.722c12.223-4.245,21.47-11.905,28.926-21.915
		c6.13-8.231,14.218-16.904,23.324-16.55c11.258,0.436,16.128-5.673,22.509-11.614c0.583-0.544,1.629-0.833,2.46-0.832
		c15.182,0.041,17.363-14.79,25.744-22.503c4.92-4.53,6.613-11.566,13.174-15.206c4.71-2.612,9.456-2.836,14.194-4.184
		c10.251-2.915,20.251-6.994,29.942-11.484c8.123-3.764,16.049-5.454,25.03-4.215c5.743,0.791,10.369,2.671,14.089,6.866
		c15.912,17.95,34.122,33.899,46.727,54.749c2.757,4.557,7.015,8.857,11.603,11.513c7.827,4.531,11.743,11.327,13.9,19.366
		c2.344,8.719,8.212,14.987,14.375,20.596c10.322,9.395,14.357,20.766,13.992,34.238c-0.302,11.131,4.03,20.502,11.712,28.18
		c4.762,4.759,7.174,10.288,7.298,16.708c0.109,5.531,4.25,8.555,6.87,12.385c6.944,10.146,10.567,21.892,16.397,32.558
		c1.294,2.368,2.758,3.669,5.02,5.055c8.202,5.034,8.709,8.517,3.401,17.329"/>

		<path fill-rule="evenodd" clip-rule="evenodd" fill="none" stroke="#000000" stroke-width="3.3253" stroke-linecap="round" stroke-linejoin="round" stroke-miterlimit="10" d="
		M521.475,466.4c-1.344,10.854-4.659,21.314-5.26,32.402c-0.55,10.193,4.866,18.27,7.139,27.391
		c5.112,20.518,20.568,33.171,37.323,43.895c7.862,5.033,15.62,10.875,24.819,13.445c23.522,6.575,45.115,0.719,63.784-13.495
		c16.612-12.647,27.712-30.088,33.39-50.457c2.878-10.328,1.155-21.044,1.82-31.562c0.571-9.038-0.523-17.309-5.848-24.991
		c-6.979-10.073-13.558-19.752-25.721-25.15c-21.195-9.406-42.914-14.139-65.755-10.377c-25.158,4.145-48.696,12.066-63.228,35.559
		c-0.604,0.973-1.635,1.679-2.465,2.511"/>

		<path fill-rule="evenodd" clip-rule="evenodd" fill="none" stroke="#000000" stroke-width="3.3253" stroke-linecap="round" stroke-linejoin="round" stroke-miterlimit="10" d="
		M171.534,140.565c7.441,7.56,17.685,5.589,26.66,7.117c6.597,1.122,13.776,1.354,20.8-1.058c4.821-1.656,9.402,0.418,12.522,5.495
		c2.946,4.798,2.027,9.438-1.119,12.389c-12.257,11.491-19.158,27.409-32.898,37.826c-8.343,6.327-14.955,14.844-21.214,23.678
		c-16.486,23.267-42.183,11.592-50.538-4.784c-1.272-2.493-1.493-6.003-5.326-6.721c-5.153-0.964-10.32-3.264-15.367-2.979
		c-4.864,0.277-3.266,5.51-3.27,8.833c-0.003,3.721,4.459,6.09,2.588,10.872c-2.915,7.454-13.121,11.103-20.941,6.571
		c-20.897-12.106-36.683-28.158-40.759-53.181c-0.095-0.583-0.532-1.112-0.808-1.666"/>

		<path fill-rule="evenodd" clip-rule="evenodd" fill="none" stroke="#000000" stroke-width="3.3253" stroke-linecap="round" stroke-linejoin="round" stroke-miterlimit="10" d="
		M223.9,584.432c-5.604-1.499-7.812-6.584-9.792-10.89c-5.996-13.036-16.055-22.591-26.008-32.273
		c-3.615-3.519-9.397-1.953-12.346,3.302c-3.3,5.881-5.195,12.003-3.518,19.113c1.942,8.234,1.198,17.062,5.128,24.898
		c6.842,13.638,17.687,23.278,30.728,30.787c11.145,6.414,15.867,17.073,16.432,29.076c0.725,15.392,6.601,28.104,15.848,40.006
		c3.955,5.092,5.647,11.439,7.47,17.983c2.834,10.176,1.734,22.38,11.658,30.288c3.452,2.75,4.99,7.708,5.935,12.296
		c1.554,7.541,4.407,14.563,7.341,21.674c4.493,10.888,10.325,13.985,21.777,9.906"/>

		<path fill-rule="evenodd" clip-rule="evenodd" fill="none" stroke="#000000" stroke-width="3.3253" stroke-linecap="round" stroke-linejoin="round" stroke-miterlimit="10" d="
		M838.167,685.01c-2.493,7.48-5.036,14.945-7.471,22.446c-4.356,13.42-10.879,25.421-20.654,35.867
		c-6.593,7.045-6.542,13.624-1.797,18.988c2.867,3.239,5.363,4.405,10.073,1.851c16.018-8.682,25.286-22.135,29.777-39.267
		c3.371-12.854,3.049-25.143-6.495-35.829c-1.09-1.223-1.867-0.168-2.603-0.733"/>

		<path fill-rule="evenodd" clip-rule="evenodd" fill="none" stroke="#000000" stroke-width="3.3253" stroke-linecap="round" stroke-linejoin="round" stroke-miterlimit="10" d="
		M744.239,576.951c5.726-2.235,7.297-7.758,10.015-12.443c3.364-5.798,4.942-12.579,9.908-17.506
		c3.956-3.925,8.213-5.576,13.312-2.447c4.957,3.042,6.299,7.966,5.771,13.271c-1.659,16.677-8.829,30.756-18.807,44.247
		c-11.773,15.918-18.848,34.578-26.083,52.987c-3.659,9.31-6.995,19.122-18.209,22.51c-2.81,0.849-2.552,3.422-2.525,5.776
		c0.06,5.264,0.493,10.582-0.091,15.78c-0.902,8.055-4.325,15.679-3.464,24.145c0.258,2.533-2.123,5.742-4.772,7.401
		c-4.944,3.097-8.828,7.182-12.477,11.656c-4.318,5.297-10.658,1.051-15.751,2.943"/>

		<path fill-rule="evenodd" clip-rule="evenodd" fill="none" stroke="#000000" stroke-width="3.3253" stroke-linecap="round" stroke-linejoin="round" stroke-miterlimit="10" d="
		M179.846,113.135c-16.07-7.708-31.864-7.414-48.327-0.27c-8.171,3.546-17.071,5.271-24.872,10.16
		c-18.048,11.305-29.713,27.187-35.695,47.462c-2.65,8.984-1.674,18.286-2.488,27.432"/>

		<path fill-rule="evenodd" clip-rule="evenodd" fill="none" stroke="#000000" stroke-width="3.3253" stroke-linecap="round" stroke-linejoin="round" stroke-miterlimit="10" d="
		M672.756,809.691c3.72,4.506,2.365,9.883,2.454,14.962c0.184,10.383,4.604,13.741,14.065,16.934
		c16.363,5.521,29.677,0.642,43.438-7.605c12.598-7.549,26.563-8.11,40.626-3.531c3.833,1.248,7.792,2.115,11.615,3.389
		c2.722,0.903,5.069,0.817,7.518-0.841c5.47-3.705,11.062-7.235,16.603-10.838"/>

		<path fill-rule="evenodd" clip-rule="evenodd" fill="none" stroke="#000000" stroke-width="3.3253" stroke-linecap="round" stroke-linejoin="round" stroke-miterlimit="10" d="
		M71.788,259.428c-0.748,9.941,4.621,17.704,10.145,24.805c7.82,10.051,7.374,12.509,2.652,25.19
		c-5.739,15.413-16.148,24.07-31.036,29.11c-4.734,1.603-9.033,4.657-13.321,7.38c-8.758,5.564-14.189,13.273-13.226,24.058
		c0.548,6.138-2.139,11.17-6.894,12.91c-4.314,1.577-7.083,5.336-11.492,6.217"/>

		<path fill-rule="evenodd" clip-rule="evenodd" fill="none" stroke="#000000" stroke-width="3.3253" stroke-linecap="round" stroke-linejoin="round" stroke-miterlimit="10" d="
		M86.75,240.31c2.16,11.339,12.103,10.606,19.989,12.283c6.127,1.304,12.292,2.082,18.296,4.201
		c5.155,1.817,8.848,4.108,8.228,10.112c-0.596,5.763-5.704,9.774-11.581,10.913c-13.157,2.547-26.015,3.968-38.325-3.313
		c-1.436-0.849-3.811-0.115-5.75-0.115"/>

		<path fill-rule="evenodd" clip-rule="evenodd" fill="none" stroke="#000000" stroke-width="3.3253" stroke-linecap="round" stroke-linejoin="round" stroke-miterlimit="10" d="
		M686.054,473.882c12.725-4.752,24.823-2.024,36.55,3.377c7.72,3.549,6.487,11.968,9.08,18.27c0.744,1.813-0.126,3.871,1.642,5.877
		c5.876,6.666,6.37,15.212,4.857,23.134c-2.362,12.371,0.941,23.964,2.81,35.774c1.747,11.047,3.141,21.331-3.957,31.788
		c-6.87,10.123-6.449,23.225-10.265,34.718c-1.253,3.781-2.103,7.766-4.974,10.81"/>

		<path fill-rule="evenodd" clip-rule="evenodd" fill="none" stroke="#000000" stroke-width="3.3253" stroke-linecap="round" stroke-linejoin="round" stroke-miterlimit="10" d="
		M520.643,465.57c-13.058-5.695-26.238-10.879-40.727-11.668c-13.021-0.707-25.234,1.829-36.575,8.342"/>

		<path fill-rule="evenodd" clip-rule="evenodd" fill="none" stroke="#000000" stroke-width="3.3253" stroke-linecap="round" stroke-linejoin="round" stroke-miterlimit="10" d="
		M10.278,389.929c2.77,8.866,5.746,17.674,8.247,26.616c1.946,6.965,4.298,13.516,9.129,19.169
		c4.585,5.364,4.826,12.435,5.824,19.06c0.387,2.563-0.153,5.273,1.736,7.47"/>

		<path fill-rule="evenodd" clip-rule="evenodd" fill="none" stroke="#000000" stroke-width="3.3253" stroke-linecap="round" stroke-linejoin="round" stroke-miterlimit="10" d="
		M629.532,798.055c-12.227,18.852-20.241,23.939-34.22,41.562c-3.932,4.953-18.074,14.923-14.786,22.838"/>

		<path fill-rule="evenodd" clip-rule="evenodd" fill="none" stroke="#000000" stroke-width="3.3253" stroke-linecap="round" stroke-linejoin="round" stroke-miterlimit="10" d="
		M405.105,818.834c4.37,25.297,9.658,46.778,31.06,59.544c3.172,1.891,10.934,14.749,14.657,14.518"/>

		<path fill-rule="evenodd" clip-rule="evenodd" fill="none" stroke="#000000" stroke-width="3.3253" stroke-linecap="round" stroke-linejoin="round" stroke-miterlimit="10" d="
		M341.932,786.418c2.761,19.884,12.833,36.462,24.223,52.282c4.556,6.326,10.412,11.722,15.676,17.538"/>

		<path fill-rule="evenodd" clip-rule="evenodd" fill="none" stroke="#000000" stroke-width="3.3253" stroke-linecap="round" stroke-linejoin="round" stroke-miterlimit="10" d="
		M591.296,810.523c2.506,6.998,1.389,12.36-2.836,19.408c-9.156,15.278-20.597,28.014-33.719,39.628
		c-3.181,2.816-5.538,6.126-4.175,10.784"/>

		<path fill-rule="evenodd" clip-rule="evenodd" fill="none" stroke="#000000" stroke-width="3.3253" stroke-linecap="round" stroke-linejoin="round" stroke-miterlimit="10" d="
		M279.591,444.788c-13.133-1.91-24.259,3.667-34.792,10.167c-4.379,2.703-8.354,5.954-13.424,7.27
		c-4.556,1.182-6.814,4.43-9.289,8.233c-5.536,8.515,2.527,11.182,5.97,15.893"/>

		<path fill-rule="evenodd" clip-rule="evenodd" fill="none" stroke="#000000" stroke-width="3.3253" stroke-linecap="round" stroke-linejoin="round" stroke-miterlimit="10" d="
		M278.76,781.43c-2.035,5.217-1.258,9.611,2.388,14.215c8.5,10.733,14.845,23.551,29.199,28.178"/>

		<path fill-rule="evenodd" clip-rule="evenodd" fill="none" stroke="#000000" stroke-width="3.3253" stroke-linecap="round" stroke-linejoin="round" stroke-miterlimit="10" d="
		M259.642,477.206c-16.466-2.228-30.586,4.844-35.646,18.322c-1.683,4.482-1.317,9.327-0.14,14.104
		c3.914,15.89,4.719,31.914,2.679,48.22c-1.1,8.781,0.328,17.732-1.562,26.633c-0.854,4.027,2.661,7.67,5.57,10.762
		c2.259,2.399,4.273,4.967,4.992,8.305"/>

		<path fill-rule="evenodd" clip-rule="evenodd" fill="none" stroke="#000000" stroke-width="3.3253" stroke-linecap="round" stroke-linejoin="round" stroke-miterlimit="10" d="
		M469.399,895.055c-5.305-9.271-17.673-31.761-20.241-42.14"/>

		<path fill-rule="evenodd" clip-rule="evenodd" fill="none" stroke="#000000" stroke-width="3.3253" stroke-linecap="round" stroke-linejoin="round" stroke-miterlimit="10" d="
		M489.889,839.616c-0.706,9.143-5.364,46.503-4.095,55.803"/>

		<path fill-rule="evenodd" clip-rule="evenodd" fill="none" stroke="#000000" stroke-width="3.3253" stroke-linecap="round" stroke-linejoin="round" stroke-miterlimit="10" d="
		M305.358,786.418"/>

		<path fill-rule="evenodd" clip-rule="evenodd" fill="none" stroke="#000000" stroke-width="3.3253" stroke-linecap="round" stroke-linejoin="round" stroke-miterlimit="10" d="
		M704.341,696.646c-0.073,9.762-3.264,19.233-2.589,29.098c0.199,2.925,0.892,5.599,1.758,8.307"/>

		<path fill-rule="evenodd" clip-rule="evenodd" fill="none" stroke="#000000" stroke-width="3.3253" stroke-linecap="round" stroke-linejoin="round" stroke-miterlimit="10" d="
		M666.105,773.118c-9.445-0.447-11.335,8.609-16.518,13.415c-4.283,3.972-6.624,9.836-11.319,13.311
		c-9.844-2.953-12.123-6.327-11.255-15.922c0.174-1.924,0.024-3.877,0.024-5.817"/>

		<path fill-rule="evenodd" clip-rule="evenodd" fill="none" stroke="#000000" stroke-width="3.3253" stroke-linecap="round" stroke-linejoin="round" stroke-miterlimit="10" d="
		M667.768,749.845c-1.529,5.379,4.176,9.733,2.42,14.936c-3.582,10.619,3.77,11.008-1.089,21.222
		c-2.425,5.099,0.596,19.143,3.657,23.689"/>

		<path fill-rule="evenodd" clip-rule="evenodd" fill="none" stroke="#000000" stroke-width="3.3253" stroke-linecap="round" stroke-linejoin="round" stroke-miterlimit="10" d="
		M331.958,776.442c1.089,12.387-0.632,22.625,4.987,36.574"/>

		<path fill-rule="evenodd" clip-rule="evenodd" fill="none" stroke="#000000" stroke-width="3.3253" stroke-linecap="round" stroke-linejoin="round" stroke-miterlimit="10" d="
		M308.871,772.786c4.308,11.507,6.434,23.271,14.583,33.91"/>

		<path fill-rule="evenodd" clip-rule="evenodd" fill="none" stroke="#000000" stroke-width="3.3253" stroke-linecap="round" stroke-linejoin="round" stroke-miterlimit="10" d="
		M553.061,844.602c3.986,2.4,2.801,5.729,0.729,8.229c-3.255,3.925-7.122,7.307-11.505,10.105
		c-6.473,4.129-12.117,20.425-16.654,26.37"/>

		<path fill-rule="evenodd" clip-rule="evenodd" fill="none" stroke="#000000" stroke-width="3.3253" stroke-linecap="round" stroke-linejoin="round" stroke-miterlimit="10" d="
		M543.918,826.316c-2.229,7.124-7.145,13.528-6.56,22.327c-2.45,2.371-5.219,5.849-10.036,6.9c-2.434,0.533-3.913,2.343-4.414,5.647
		c-0.972,6.374-12.635,27.882-17.046,32.459"/>

		<path fill-rule="evenodd" clip-rule="evenodd" fill="none" stroke="#000000" stroke-width="3.3253" stroke-linecap="round" stroke-linejoin="round" stroke-miterlimit="10" d="
		M370.193,801.381c-0.556,5.735-1.006,11.457,5.827,14.108c1.989,0.772,2.969,1.888,3.399,4.16
		c1.995,10.513,11.024,16.861,15.619,25.831c2.166,4.229,5.507,4.218,9.234,4.109"/>

		<path fill-rule="evenodd" clip-rule="evenodd" fill="none" stroke="#000000" stroke-width="3.3253" stroke-linecap="round" stroke-linejoin="round" stroke-miterlimit="10" d="
		M397.624,849.59c-1.088,6.264,3.328,9.96,6.664,14.12c4.337,5.405,10.571,12.736,12.454,19.983"/>

		<path fill-rule="evenodd" clip-rule="evenodd" fill="none" stroke="#000000" stroke-width="3.3253" stroke-linecap="round" stroke-linejoin="round" stroke-miterlimit="10" d="
		M289.565,751.506c-0.022,9.183,3.748,17.647,5.038,26.593c0.73,5.059,5.424,5.294,9.093,6.656c0,0,59.894,113.159,182.098,110.664
		c122.204-2.494,213.834-156.382,213.834-156.382"/>

		<path fill-rule="evenodd" clip-rule="evenodd" fill="none" stroke="#000000" stroke-width="3.3253" stroke-linecap="round" stroke-linejoin="round" stroke-miterlimit="10" d="
		M400.948,689.165c-4.854,9.033-12.432,16.309-16.624,25.768"/>

		<path fill-rule="evenodd" clip-rule="evenodd" fill="none" stroke="#000000" stroke-width="3.3253" stroke-linecap="round" stroke-linejoin="round" stroke-miterlimit="10" d="
		M557.216,685.01c-0.263,4.024-0.004,7.808,3.301,10.834c4.565,4.18,7.627,9.479,10.413,14.935"/>

		<path fill-rule="evenodd" clip-rule="evenodd" fill="none" stroke="#000000" stroke-width="3.3253" stroke-linecap="round" stroke-linejoin="round" stroke-miterlimit="10" d="
		M540.59,678.359c-0.264,4.024-0.004,7.808,3.301,10.834c4.566,4.18,7.626,9.479,10.414,14.935"/>

		<path opacity="0.7" fill-rule="evenodd" clip-rule="evenodd" fill="none" stroke="#000000" stroke-width="3.3253" stroke-linecap="round" stroke-linejoin="round" stroke-miterlimit="10" d="
		M374.35,763.143c-7.37,2.27-17.501,12.843-19.119,19.949"/>

		<path fill-rule="evenodd" clip-rule="evenodd" fill="none" stroke="#000000" stroke-width="3.3253" stroke-linecap="round" stroke-linejoin="round" stroke-miterlimit="10" d="
		M447.496,675.034c-3.65,8.882-11.036,14.996-16.623,22.444"/>

		<path fill-rule="evenodd" clip-rule="evenodd" fill="none" stroke="#000000" stroke-width="3.3253" stroke-linecap="round" stroke-linejoin="round" stroke-miterlimit="10" d="
		M466.199,674.346c-3.935,9.573-11.573,15.709-16.624,22.443"/>

		<path fill-rule="evenodd" clip-rule="evenodd" fill="none" stroke="#000000" stroke-width="3.3253" stroke-linecap="round" stroke-linejoin="round" stroke-miterlimit="10" d="
		M481.164,672.683c-3.742,9.101-3.33,12.932-7.069,21.766"/>

		<path fill-rule="evenodd" clip-rule="evenodd" fill="none" stroke="#000000" stroke-width="3.3253" stroke-linecap="round" stroke-linejoin="round" stroke-miterlimit="10" d="
		M492.384,672.683c1.08,8.713,2.212,11.079,4.425,19.808"/>

		<path fill-rule="evenodd" clip-rule="evenodd" fill="none" stroke="#000000" stroke-width="3.3253" stroke-linecap="round" stroke-linejoin="round" stroke-miterlimit="10" d="
		M425.884,685.01c-4.812-0.334-5.686,4.376-8.186,6.779c-5.079,4.88-8.134,11.81-15.087,14.832"/>

		<path fill-rule="evenodd" clip-rule="evenodd" fill="none" stroke="#000000" stroke-width="3.3253" stroke-linecap="round" stroke-linejoin="round" stroke-miterlimit="10" d="
		M509.838,769.793c0.668,3.798-1.722,6.041-4.145,8.323c-3.168,2.983-6.523,5.897-8.247,9.996c-0.735,1.749-1.608,2.886-3.388,2.41
		c-4.162-1.115-7.101,1.688-9.885,3.533c-5.417,3.591-9.549,5.036-16.145,1.088c-5.158-3.09-12.187,0.88-17.006,4.052
		c-4.519,2.972-1.496,8.122,0.625,12.16c0.577,1.098,1.112,2.216,1.666,3.322"/>

		<path fill-rule="evenodd" clip-rule="evenodd" fill="none" stroke="#000000" stroke-width="3.3253" stroke-linecap="round" stroke-linejoin="round" stroke-miterlimit="10" d="
		M450.822,771.456c6.599,5.967,13.144,11.972,14.13,21.611"/>

		<path fill-rule="evenodd" clip-rule="evenodd" fill="none" stroke="#000000" stroke-width="3.3253" stroke-linecap="round" stroke-linejoin="round" stroke-miterlimit="10" d="
		M575.919,692.49c0.276,8.104,6.555,12.965,10.488,19.056c1.398,2.161,3.989,3.56,3.228,6.712"/>

		<path opacity="0.7" fill-rule="evenodd" clip-rule="evenodd" fill="none" stroke="#000000" stroke-width="3.3253" stroke-linecap="round" stroke-linejoin="round" stroke-miterlimit="10" d="
		M366.038,781.43c-3.522,7.489-9.483,14.108-8.312,23.274"/>

		<path opacity="0.7" fill-rule="evenodd" clip-rule="evenodd" fill="none" stroke="#000000" stroke-width="3.3253" stroke-linecap="round" stroke-linejoin="round" stroke-miterlimit="10" d="
		M366.038,748.178c-7.011,14.903-10.429,6.694-8.312,23.273"/>

		<path fill-rule="evenodd" clip-rule="evenodd" fill="none" stroke="#000000" stroke-width="3.3253" stroke-linecap="round" stroke-linejoin="round" stroke-miterlimit="10" d="
		M524.799,834.627c2.172,6.516-0.792,13.459,1.663,19.949"/>

		<path fill-rule="evenodd" clip-rule="evenodd" fill="none" stroke="#000000" stroke-width="3.3253" stroke-linecap="round" stroke-linejoin="round" stroke-miterlimit="10" d="
		M489.889,895.055c1.494-0.899,8.995-28.549,10.764-29.004c3.867-1,5.845-3.893,5.027-8.149"/>

		<path fill-rule="evenodd" clip-rule="evenodd" fill="none" stroke="#000000" stroke-width="3.3253" stroke-linecap="round" stroke-linejoin="round" stroke-miterlimit="10" d="
		M473.264,844.602c2.327,6.162,8.138,44.848,12.53,50.817"/>

		<path fill-rule="evenodd" clip-rule="evenodd" fill="none" stroke="#000000" stroke-width="3.3253" stroke-linecap="round" stroke-linejoin="round" stroke-miterlimit="10" d="
		M380.584,695.815c-1.245,5.958-3.693,11.265-7.853,15.834c-2.482,2.727-3.881,6.069-3.369,9.935"/>

		<path fill-rule="evenodd" clip-rule="evenodd" fill="none" stroke="#000000" stroke-width="3.3253" stroke-linecap="round" stroke-linejoin="round" stroke-miterlimit="10" d="
		M525.631,773.118c-3.864,11.391-9.412,21.367-21.611,25.768"/>

		<path fill-rule="evenodd" clip-rule="evenodd" fill="none" stroke="#000000" stroke-width="3.3253" stroke-linecap="round" stroke-linejoin="round" stroke-miterlimit="10" d="
		M460.795,843.771c2.47,6.197,3.747,13.448,12.468,14.13"/>

		<path opacity="0.7" fill-rule="evenodd" clip-rule="evenodd" fill="none" stroke="#000000" stroke-width="3.3253" stroke-linecap="round" stroke-linejoin="round" stroke-miterlimit="10" d="
		M362.713,732.389c-5.782,5.435-11.554,10.875-13.3,19.117"/>

		<path fill-rule="evenodd" clip-rule="evenodd" fill="none" stroke="#000000" stroke-width="3.3253" stroke-linecap="round" stroke-linejoin="round" stroke-miterlimit="10" d="
		M474.095,774.781c0.432,6.701,4.792,11.721,7.481,17.454"/>

		<path opacity="0.7" fill-rule="evenodd" clip-rule="evenodd" fill="none" stroke="#000000" stroke-width="3.3253" stroke-linecap="round" stroke-linejoin="round" stroke-miterlimit="10" d="
		M600.438,749.845c-4.865-4.641-9.018-10.381-16.624-10.808"/>

		<path opacity="0.7" fill-rule="evenodd" clip-rule="evenodd" fill="none" stroke="#000000" stroke-width="3.3253" stroke-linecap="round" stroke-linejoin="round" stroke-miterlimit="10" d="
		M600.438,738.206c-4.865-4.64-7.354-10.382-14.961-10.807"/>

		<path opacity="0.7" fill-rule="evenodd" clip-rule="evenodd" fill="none" stroke="#000000" stroke-width="3.3253" stroke-linecap="round" stroke-linejoin="round" stroke-miterlimit="10" d="
		M617.065,773.121c-4.866-4.641-7.354-10.381-14.963-10.807"/>

		<path opacity="0.7" fill-rule="evenodd" clip-rule="evenodd" fill="none" stroke="#000000" stroke-width="3.3253" stroke-linecap="round" stroke-linejoin="round" stroke-miterlimit="10" d="
		M603.765,778.109c-4.866-4.64-7.356-10.382-14.963-10.807"/>

		<path fill-rule="evenodd" clip-rule="evenodd" fill="none" stroke="#000000" stroke-width="3.3253" stroke-linecap="round" stroke-linejoin="round" stroke-miterlimit="10" d="
		M604.596,805.534c-0.369,6.884-3.022,11.641-10.806,11.637"/>

		<path fill-rule="evenodd" clip-rule="evenodd" fill="none" stroke="#000000" stroke-width="3.3253" stroke-linecap="round" stroke-linejoin="round" stroke-miterlimit="10" d="
		M560.54,822.99c-3.558,6.769-3.6,14.484-5.816,21.611"/>

		<path fill-rule="evenodd" clip-rule="evenodd" fill="none" stroke="#000000" stroke-width="3.3253" stroke-linecap="round" stroke-linejoin="round" stroke-miterlimit="10" d="
		M516.902,677.527c0.861,2.332,2.425,4.052,4.219,5.575c3.586,3.045,8.09,5.312,9.729,10.14c0.065,0.187,3.862,1.035,5.587-0.752"/>

		<path fill-rule="evenodd" clip-rule="evenodd" fill="none" stroke="#000000" stroke-width="3.3253" stroke-linecap="round" stroke-linejoin="round" stroke-miterlimit="10" d="
		M504.495,676.451c-2.644-2.246,9.887,10.605,9.729,10.141"/>

		<path fill-rule="evenodd" clip-rule="evenodd" fill="none" stroke="#000000" stroke-width="3.3253" stroke-linecap="round" stroke-linejoin="round" stroke-miterlimit="10" d="
		M513.162,836.29c-1.815,6.456-2.244,12.503,2.332,18.412c1.966,2.54,3.977,4.022,6.811,4.862"/>

		<path fill-rule="evenodd" clip-rule="evenodd" fill="none" stroke="#000000" stroke-width="3.3253" stroke-linecap="round" stroke-linejoin="round" stroke-miterlimit="10" d="
		M496.537,791.404c5.896,5.239,8.442,12.827,11.967,19.389c2.363,4.398-0.053,11.367-0.329,17.184"/>

		<path fill-rule="evenodd" clip-rule="evenodd" fill="none" stroke="#000000" stroke-width="3.3253" stroke-linecap="round" stroke-linejoin="round" stroke-miterlimit="10" d="
		M429.21,832.966c0.478,5.761,4.387,9.993,6.955,15.204c-2.59,3.236-7.682,19.044-10.281,22.292"/>

		<path fill-rule="evenodd" clip-rule="evenodd" fill="none" stroke="#000000" stroke-width="3.3253" stroke-linecap="round" stroke-linejoin="round" stroke-miterlimit="10" d="
		M365.207,696.646c0.497,6.855-0.264,13.412-4.571,19.118"/>

		<path fill-rule="evenodd" clip-rule="evenodd" fill="none" stroke="#000000" stroke-width="3.3253" stroke-linecap="round" stroke-linejoin="round" stroke-miterlimit="10" d="
		M612.907,793.067c-2.098,4.36-2.548,11.059-8.325,11.297c-5.676,0.234-6.058-6.885-9.074-10.514
		c-0.407-0.491-0.056-1.615-0.056-2.446"/>

		<path fill-rule="evenodd" clip-rule="evenodd" fill="none" stroke="#000000" stroke-width="3.3253" stroke-linecap="round" stroke-linejoin="round" stroke-miterlimit="10" d="
		M593.375,699.139c0.502,4.034,0.615,7.835,4.39,11.021c2.618,2.207,6.116,5.13,5.169,9.762"/>

		<path fill-rule="evenodd" clip-rule="evenodd" fill="none" stroke="#000000" stroke-width="3.3253" stroke-linecap="round" stroke-linejoin="round" stroke-miterlimit="10" d="
		M381.831,804.704c0.65,4.606-0.763,8.477-4.157,11.636"/>

		<path fill-rule="evenodd" clip-rule="evenodd" fill="none" stroke="#000000" stroke-width="3.3253" stroke-linecap="round" stroke-linejoin="round" stroke-miterlimit="10" d="
		M689.378,728.231c-0.431,4.076,0.197,7.827,3.326,10.806"/>
</g>
</svg>
