<?xml version="1.0" encoding="utf-8"?>
<!-- Generator: Adobe Illustrator 19.2.0, SVG Export Plug-In . SVG Version: 6.00 Build 0)  -->
<svg version="1.1" id="Layer_1" xmlns="http://www.w3.org/2000/svg" xmlns:xlink="http://www.w3.org/1999/xlink" x="0px" y="0px"
	 viewBox="0 0 79.2 76.5" style="enable-background:new 0 0 79.2 76.5;" xml:space="preserve">
<style type="text/css">
	.st0{fill:none;stroke:#F0C958;stroke-width:5;stroke-linecap:round;stroke-linejoin:round;stroke-miterlimit:10;}
</style>
<g id="Layer_2">
</g>
<g id="Layer_1_1_">
	<path class="st0" d="M57.5,72.3c-2-1.1-19-10.6-19-10.6s-17.7,8.9-19.2,9.6c-1.5,0.8-5.1-0.4-4.4-3.6c0.6-3.1,4.1-21,4.1-21
		S5.9,33.6,4,31.8s-1.2-5.1,2.1-5.5s20.9-2.6,20.9-2.6S36.3,6,37.1,4.4c0.9-1.6,4.4-1.7,5.2,0.1c0.9,1.9,9.2,19.7,9.2,19.7
		s20,3.3,21.7,3.7c2.6,0.5,2.8,3.7,1.2,5.1c-1.6,1.4-15.8,14.7-15.8,14.7s3,19.8,3.3,22.2C62.2,72.4,59.5,73.4,57.5,72.3z"/>
</g>
</svg>
