<svg enable-background="new 0 0 128 128" height="128px" version="1.1" viewBox="0 0 128 128" width="128px" xml:space="preserve" xmlns="http://www.w3.org/2000/svg" xmlns:xlink="http://www.w3.org/1999/xlink"><g id="Layer_2"/><g id="Layer_1"><path d="   M82.23,101.301c-1.994-1.107-19.021-10.56-19.021-10.56s-17.659,8.893-19.156,9.645c-1.497,0.751-5.058-0.425-4.447-3.552   c0.608-3.129,4.085-20.961,4.085-20.961S30.684,62.639,28.752,60.795s-1.22-5.113,2.137-5.523s20.913-2.557,20.913-2.557   s9.235-17.683,10.089-19.301c0.854-1.621,4.368-1.738,5.246,0.145c0.879,1.884,9.193,19.713,9.193,19.713s19.994,3.345,21.657,3.65   c2.582,0.479,2.779,3.662,1.227,5.106c-1.55,1.444-15.833,14.745-15.833,14.745s2.989,19.79,3.294,22.219   C86.979,101.421,84.226,102.408,82.23,101.301z" fill="none" stroke="#231F20" stroke-linecap="round" stroke-linejoin="round" stroke-miterlimit="10" stroke-width="5"/></g></svg>
