<svg id="Layer_1" xmlns="http://www.w3.org/2000/svg" width="936.72" height="911.268" viewBox="0 0 936.72 911.268"><style>svg{opacity:.75;transition:opacity .3s ease-in-out}svg:hover{opacity:1;pointer:cursor;animation:outline 3s ease-in-out}path{stroke:#000;stroke-width:5;stroke-dasharray:1200}@keyframes outline{0%{stroke-dashoffset:1200}to{stroke-dashoffset:0}}</style><g fill="none" stroke="#000" stroke-width="3.325" stroke-linecap="round" stroke-linejoin="round" stroke-miterlimit="10"><path d="M528.955 4.246c8.701 1.993 17.033 10.326 18.286 18.287 1.179 7.479-.995 9.135-8.309 9.284-18.849.384-27.637-14.466-38.85-25.306-3.27-3.16-5.737-5.073-10.199-4.826-5.248.291-10.525.099-15.789.063-18.099-.125-34.929 3.685-50.863 13.031-9.498 5.57-20.417 6.173-30.633-.501-6.726-4.395-14.112-6.836-22.412-5.934-5.317.58-11.254.948-15.661-1.805-10.361-6.475-21.537-4.44-32.542-4.781-26.75-.825-50.956 7.016-73.143 21.613-19.747 12.993-32.459 31.451-40.668 53.217-3.18 8.434-6.663 16.986-8.057 25.792-1.185 7.501-4.539 9.376-11.13 9.183-2.769-.081-5.569.838-8.373 1.305.054 3.875 3.156 5.396 5.034 7.761 4.578 5.766 3.029 10.115-4.111 13.348-6.664 3.016-13.463 5.011-20.809 4.926"/><path fill-rule="evenodd" clip-rule="evenodd" d="M547.241 15.882c13.104-3.972 21.562 5.929 25.621 17.508 1.928 5.49 4.445 9.814 9.167 13.412 3.518 2.682 5.979 6.768 8.721 10.428 9.099 12.148 22.687 18.799 36.405 24.014 9.472 3.6 18.609 7.473 26.38 13.731 8.555 6.89 17.165 13.407 27.51 17.387 1.819.7 3.455 2.026 4.991 3.289 7.469 6.139 14.217 13.284 24.079 15.938 1.213.329 3.608 1.428 3.389 3.989-.853 9.907 4.97 16.823 11.762 22.261 9.005 7.212 16.602 15.59 23.936 24.307 8.697 10.335 20.85 16.591 30.119 26.417 14.707 15.587 26.829 32.541 34.913 52.457 1.442 3.554-1.285 5.438-1.151 8.389.408 9.125.324 18.285.07 27.421-.118 4.28 2.13 7.281 5.142 9.014 9.859 5.676 9.253 14.3 7.383 23.4-2.803 13.665.07 21.994 17.478 21.79 10.004-.118 19.766 2.638 29.273 5.825-.979 6.698-4.987 10.129-10.182 12.226-4.775 1.928-8.676 4.452-9.068 10.04-.311 4.382-1.028 9.759 4.17 11.438 6.053 1.954 12.354 6.663 19.015 1.801 4.917-3.59 9.34-7.86 14.206-11.534 4.861-3.674 8.786-1.968 9.021 4.114.341 8.852.083 17.729.089 26.595.003 3.686-2.36 6.443-4.268 9.062-5.545 7.609-5.875 14.843-3.759 24.308 2.746 12.28 9.733 16.699 20.423 20.05 12.724 3.986 22.385 19.285 22.496 33.024.081 9.976-.766 20.028.201 29.907 1.419 14.48-2.319 25.712-14.084 35.216-7.343 5.936-12.302 14.778-18.554 22.124-5.636 6.625-4.62 14.991-5.448 22.513-1.066 9.698-3.268 17.939-11.994 23.198-3.254 1.962-4.077 4.761-5.22 8.265-2.768 8.461-8.255 14.792-18.026 15.919-4.959.571-9.706 1.927-14.327 6.031 6.109 5.998 8.055 13.925 12.174 20.816 6.56 10.97 9.722 23.863 5.467 37.111-1.306 4.066-2.369 8.237-1.6 12.462 2.035 11.183-3.73 19.471-10.089 27.393-6.797 8.465-15.682 14.455-25.774 18.157-4.664 1.711-9.983 2.112-14.919-.613-3.909-2.156-7.237-.407-9.916 2.483-2.892 3.123-4.163 7.286-1.57 10.675 5.595 7.31 8.983 14.704 6.839 24.276-.39 1.738-.334 6.464 3.839 7.409m-506.213-34.907c-1.244 9.562-1.82 18.696 5.579 26.818 2.328 2.553 1.293 7.278-.363 11.506-4.276 10.914-5.102 22.452.757 33.075 4.212 7.64 3.899 14.455-.133 21.707-3.25 5.846-5.339 12.179-6.602 18.704-1.051 5.436-4.458 6.871-9.202 6.159-3.374-.508-6.712-1.434-9.973-2.469-5.481-1.737-10.758-1.372-14.899 2.609-5.971 5.741-12.818 5.892-19.996 3.975-3.383-.902-7.166-1.654-9.915-.517-9.896 4.101-15.803-1.146-21.738-7.659-6.202-6.806-12.949-13.124-18.975-20.075-2.888-3.328-5.918-6.96-4.34-12.399 3.566-12.292-.838-22.867-8.29-32.349-5.652-7.192-8.212-15.173-7.35-24.144.474-4.92-.525-9.691-1.941-14.07-2.382-7.365.08-13.461 4.531-18.195 7.633-8.115 11.984-19.611 23.892-23.562 2.89-.957 4.364-4.187 3.285-7.32-1.414-4.114-4.764-6.37-9.063-6.622-4.419-.26-8.909-.461-13.286.032-7.373.83-14.7-.789-21.513-2.257-6.979-1.503-12.508-.33-18.38 2.202-3.409 1.469-6.544 3.618-10.012 4.895-14.292 5.266-27.784-4.664-27.483-19.895.056-2.913.572-5.461 2.598-7.448 3.496-3.433 7.175-6.681 10.779-10.008-.574-6.163-4.171-8.236-9.981-7.509-1.637.204-3.385.323-4.971-.025-4.794-1.045-8.788-2.147-6.877-9.145 1.765-6.469-1.702-8.63-8.082-5.729-5.351 2.435-10.824 4.165-16.617 2.385-4.204-1.293-7.521-3.743-6.683-9.068 2.361-14.99-2.83-23.477-18.023-29.707-18.606-7.628-26.346-25.482-28.385-45.111-.579-5.566-2.046-9.547-7.575-11.716-3.12-1.225-5.516-4.938-5.527-7.393-.03-6.197-2.996-10.269-6.99-14.116-2.694-2.592-2.259-5.562-.744-8.282 1.65-2.962 2.355-7.11 4.318-8.93 6.872-6.367 6.841-13.002 4.057-21.084-2.387-6.923 3.056-10.467 8.242-12.219 6.977-2.356 8.52-7.301 9.094-13.5 1.193-12.864 3.566-15.161 15.756-17.55 6.24-1.224 10.979-4.942 12.448-11.552 1.469-6.614-2.067-14.609-8.334-17.308-4.881-2.103-10.055-1.929-13.655 3.186"/><path fill-rule="evenodd" clip-rule="evenodd" d="M317.827 424.841c7.874 2.974 15.776.322 23.218-1.118 18.332-3.547 35.108 1.367 52.5 5.797 20.394 5.194 33.047 20.459 48.11 32.751 2.283 1.865 2.277 4.956 2.41 7.46 1.257 23.646-2.663 45.897-13.703 67.486-13.494 26.39-36.031 38.793-62.685 46.304-9.034 2.545-18.265-.2-27.407-.306-31.687-.362-49.301-22.023-67.463-43.555-13.688-16.227-12.246-35.287-12.199-54.143.033-13.493 7.247-23.579 16.051-33.634 5.25-5.994 10.328-11.179 16.865-15.695 4.333-2.994 8.385-5.23 13.47-6.474 10.721-2.62 14.707-8.013 13.208-18.157-1.058-7.162 1.897-10.873 7.427-15.199 17.667-13.822 31.919-30.318 35.091-53.809 1.021-7.562 6.214-12.523 12.543-14.722 12.223-4.245 21.47-11.905 28.926-21.915 6.13-8.231 14.218-16.904 23.324-16.55 11.258.436 16.128-5.673 22.509-11.614.583-.544 1.629-.833 2.46-.832 15.182.041 17.363-14.79 25.744-22.503 4.92-4.53 6.613-11.566 13.174-15.206 4.71-2.612 9.456-2.836 14.194-4.184 10.251-2.915 20.251-6.994 29.942-11.484 8.123-3.764 16.049-5.454 25.03-4.215 5.743.791 10.369 2.671 14.089 6.866 15.912 17.95 34.122 33.899 46.727 54.749 2.757 4.557 7.015 8.857 11.603 11.513 7.827 4.531 11.743 11.327 13.9 19.366 2.344 8.719 8.212 14.987 14.375 20.596 10.322 9.395 14.357 20.766 13.992 34.238-.302 11.131 4.03 20.502 11.712 28.18 4.762 4.759 7.174 10.288 7.298 16.708.109 5.531 4.25 8.555 6.87 12.385 6.944 10.146 10.567 21.892 16.397 32.558 1.294 2.368 2.758 3.669 5.02 5.055 8.202 5.034 8.709 8.517 3.401 17.329"/><path fill-rule="evenodd" clip-rule="evenodd" d="M521.475 466.4c-1.344 10.854-4.659 21.314-5.26 32.402-.55 10.193 4.866 18.27 7.139 27.391 5.112 20.518 20.568 33.171 37.323 43.895 7.862 5.033 15.62 10.875 24.819 13.445 23.522 6.575 45.115.719 63.784-13.495 16.612-12.647 27.712-30.088 33.39-50.457 2.878-10.328 1.155-21.044 1.82-31.562.571-9.038-.523-17.309-5.848-24.991-6.979-10.073-13.558-19.752-25.721-25.15-21.195-9.406-42.914-14.139-65.755-10.377-25.158 4.145-48.696 12.066-63.228 35.559-.604.973-1.635 1.679-2.465 2.511M171.534 140.565c7.441 7.56 17.685 5.589 26.66 7.117 6.597 1.122 13.776 1.354 20.8-1.058 4.821-1.656 9.402.418 12.522 5.495 2.946 4.798 2.027 9.438-1.119 12.389-12.257 11.491-19.158 27.409-32.898 37.826-8.343 6.327-14.955 14.844-21.214 23.678-16.486 23.267-42.183 11.592-50.538-4.784-1.272-2.493-1.493-6.003-5.326-6.721-5.153-.964-10.32-3.264-15.367-2.979-4.864.277-3.266 5.51-3.27 8.833-.003 3.721 4.459 6.09 2.588 10.872-2.915 7.454-13.121 11.103-20.941 6.571-20.897-12.106-36.683-28.158-40.759-53.181-.095-.583-.532-1.112-.808-1.666M223.9 584.432c-5.604-1.499-7.812-6.584-9.792-10.89-5.996-13.036-16.055-22.591-26.008-32.273-3.615-3.519-9.397-1.953-12.346 3.302-3.3 5.881-5.195 12.003-3.518 19.113 1.942 8.234 1.198 17.062 5.128 24.898 6.842 13.638 17.687 23.278 30.728 30.787 11.145 6.414 15.867 17.073 16.432 29.076.725 15.392 6.601 28.104 15.848 40.006 3.955 5.092 5.647 11.439 7.47 17.983 2.834 10.176 1.734 22.38 11.658 30.288 3.452 2.75 4.99 7.708 5.935 12.296 1.554 7.541 4.407 14.563 7.341 21.674 4.493 10.888 10.325 13.985 21.777 9.906m543.614-95.588c-2.493 7.48-5.036 14.945-7.471 22.446-4.356 13.42-10.879 25.421-20.654 35.867-6.593 7.045-6.542 13.624-1.797 18.988 2.867 3.239 5.363 4.405 10.073 1.851 16.018-8.682 25.286-22.135 29.777-39.267 3.371-12.854 3.049-25.143-6.495-35.829-1.09-1.223-1.867-.168-2.603-.733m-94.758-111.382c5.726-2.235 7.297-7.758 10.015-12.443 3.364-5.798 4.942-12.579 9.908-17.506 3.956-3.925 8.213-5.576 13.312-2.447 4.957 3.042 6.299 7.966 5.771 13.271-1.659 16.677-8.829 30.756-18.807 44.247-11.773 15.918-18.848 34.578-26.083 52.987-3.659 9.31-6.995 19.122-18.209 22.51-2.81.849-2.552 3.422-2.525 5.776.06 5.264.493 10.582-.091 15.78-.902 8.055-4.325 15.679-3.464 24.145.258 2.533-2.123 5.742-4.772 7.401-4.944 3.097-8.828 7.182-12.477 11.656-4.318 5.297-10.658 1.051-15.751 2.943"/><path fill-rule="evenodd" clip-rule="evenodd" d="M179.846 113.135c-16.07-7.708-31.864-7.414-48.327-.27-8.171 3.546-17.071 5.271-24.872 10.16-18.048 11.305-29.713 27.187-35.695 47.462-2.65 8.984-1.674 18.286-2.488 27.432m604.292 611.772c3.72 4.506 2.365 9.883 2.454 14.962.184 10.383 4.604 13.741 14.065 16.934 16.363 5.521 29.677.642 43.438-7.605 12.598-7.549 26.563-8.11 40.626-3.531 3.833 1.248 7.792 2.115 11.615 3.389 2.722.903 5.069.817 7.518-.841 5.47-3.705 11.062-7.235 16.603-10.838M71.788 259.428c-.748 9.941 4.621 17.704 10.145 24.805 7.82 10.051 7.374 12.509 2.652 25.19-5.739 15.413-16.148 24.07-31.036 29.11-4.734 1.603-9.033 4.657-13.321 7.38-8.758 5.564-14.189 13.273-13.226 24.058.548 6.138-2.139 11.17-6.894 12.91-4.314 1.577-7.083 5.336-11.492 6.217"/><path fill-rule="evenodd" clip-rule="evenodd" d="M86.75 240.31c2.16 11.339 12.103 10.606 19.989 12.283 6.127 1.304 12.292 2.082 18.296 4.201 5.155 1.817 8.848 4.108 8.228 10.112-.596 5.763-5.704 9.774-11.581 10.913-13.157 2.547-26.015 3.968-38.325-3.313-1.436-.849-3.811-.115-5.75-.115m608.447 199.491c12.725-4.752 24.823-2.024 36.55 3.377 7.72 3.549 6.487 11.968 9.08 18.27.744 1.813-.126 3.871 1.642 5.877 5.876 6.666 6.37 15.212 4.857 23.134-2.362 12.371.941 23.964 2.81 35.774 1.747 11.047 3.141 21.331-3.957 31.788-6.87 10.123-6.449 23.225-10.265 34.718-1.253 3.781-2.103 7.766-4.974 10.81M520.643 465.57c-13.058-5.695-26.238-10.879-40.727-11.668-13.021-.707-25.234 1.829-36.575 8.342M10.278 389.929c2.77 8.866 5.746 17.674 8.247 26.616 1.946 6.965 4.298 13.516 9.129 19.169 4.585 5.364 4.826 12.435 5.824 19.06.387 2.563-.153 5.273 1.736 7.47m594.318 335.811c-12.227 18.852-20.241 23.939-34.22 41.562-3.932 4.953-18.074 14.923-14.786 22.838m-175.421-43.621c4.37 25.297 9.658 46.778 31.06 59.544 3.172 1.891 10.934 14.749 14.657 14.518m-108.89-106.478c2.761 19.884 12.833 36.462 24.223 52.282 4.556 6.326 10.412 11.722 15.676 17.538m209.465-45.715c2.506 6.998 1.389 12.36-2.836 19.408-9.156 15.278-20.597 28.014-33.719 39.628-3.181 2.816-5.538 6.126-4.175 10.784M279.591 444.788c-13.133-1.91-24.259 3.667-34.792 10.167-4.379 2.703-8.354 5.954-13.424 7.27-4.556 1.182-6.814 4.43-9.289 8.233-5.536 8.515 2.527 11.182 5.97 15.893M278.76 781.43c-2.035 5.217-1.258 9.611 2.388 14.215 8.5 10.733 14.845 23.551 29.199 28.178"/><path fill-rule="evenodd" clip-rule="evenodd" d="M259.642 477.206c-16.466-2.228-30.586 4.844-35.646 18.322-1.683 4.482-1.317 9.327-.14 14.104 3.914 15.89 4.719 31.914 2.679 48.22-1.1 8.781.328 17.732-1.562 26.633-.854 4.027 2.661 7.67 5.57 10.762 2.259 2.399 4.273 4.967 4.992 8.305m233.864 291.503c-5.305-9.271-17.673-31.761-20.241-42.14m40.731-13.299c-.706 9.143-5.364 46.503-4.095 55.803m218.547-198.773c-.073 9.762-3.264 19.233-2.589 29.098.199 2.925.892 5.599 1.758 8.307m-37.405 39.067c-9.445-.447-11.335 8.609-16.518 13.415-4.283 3.972-6.624 9.836-11.319 13.311-9.844-2.953-12.123-6.327-11.255-15.922.174-1.924.024-3.877.024-5.817m40.731-28.26c-1.529 5.379 4.176 9.733 2.42 14.936-3.582 10.619 3.77 11.008-1.089 21.222-2.425 5.099.596 19.143 3.657 23.689m-340.798-33.25c1.089 12.387-.632 22.625 4.987 36.574m-28.074-40.23c4.308 11.507 6.434 23.271 14.583 33.91m229.607 37.906c3.986 2.4 2.801 5.729.729 8.229-3.255 3.925-7.122 7.307-11.505 10.105-6.473 4.129-12.117 20.425-16.654 26.37m18.287-62.99c-2.229 7.124-7.145 13.528-6.56 22.327-2.45 2.371-5.219 5.849-10.036 6.9-2.434.533-3.913 2.343-4.414 5.647-.972 6.374-12.635 27.882-17.046 32.459m-135.669-92.268c-.556 5.735-1.006 11.457 5.827 14.108 1.989.772 2.969 1.888 3.399 4.16 1.995 10.513 11.024 16.861 15.619 25.831 2.166 4.229 5.507 4.218 9.234 4.109m-6.648.001c-1.088 6.264 3.328 9.96 6.664 14.12 4.337 5.405 10.571 12.736 12.454 19.983"/><path fill-rule="evenodd" clip-rule="evenodd" d="M289.565 751.506c-.022 9.183 3.748 17.647 5.038 26.593.73 5.059 5.424 5.294 9.093 6.656 0 0 59.894 113.159 182.098 110.664 122.204-2.494 213.834-156.382 213.834-156.382m-298.68-49.872c-4.854 9.033-12.432 16.309-16.624 25.768m172.892-29.923c-.263 4.024-.004 7.808 3.301 10.834 4.565 4.18 7.627 9.479 10.413 14.935m-30.34-32.42c-.264 4.024-.004 7.808 3.301 10.834 4.566 4.18 7.626 9.479 10.414 14.935"/><path opacity=".7" fill-rule="evenodd" clip-rule="evenodd" d="M374.35 763.143c-7.37 2.27-17.501 12.843-19.119 19.949"/><path fill-rule="evenodd" clip-rule="evenodd" d="M447.496 675.034c-3.65 8.882-11.036 14.996-16.623 22.444m35.326-23.132c-3.935 9.573-11.573 15.709-16.624 22.443m31.589-24.106c-3.742 9.101-3.33 12.932-7.069 21.766m18.289-21.766c1.08 8.713 2.212 11.079 4.425 19.808m-70.925-7.481c-4.812-.334-5.686 4.376-8.186 6.779-5.079 4.88-8.134 11.81-15.087 14.832m107.227 63.172c.668 3.798-1.722 6.041-4.145 8.323-3.168 2.983-6.523 5.897-8.247 9.996-.735 1.749-1.608 2.886-3.388 2.41-4.162-1.115-7.101 1.688-9.885 3.533-5.417 3.591-9.549 5.036-16.145 1.088-5.158-3.09-12.187.88-17.006 4.052-4.519 2.972-1.496 8.122.625 12.16.577 1.098 1.112 2.216 1.666 3.322m-2.491-43.221c6.599 5.967 13.144 11.972 14.13 21.611M575.919 692.49c.276 8.104 6.555 12.965 10.488 19.056 1.398 2.161 3.989 3.56 3.228 6.712"/><path opacity=".7" fill-rule="evenodd" clip-rule="evenodd" d="M366.038 781.43c-3.522 7.489-9.483 14.108-8.312 23.274m8.312-56.526c-7.011 14.903-10.429 6.694-8.312 23.273"/><path fill-rule="evenodd" clip-rule="evenodd" d="M524.799 834.627c2.172 6.516-.792 13.459 1.663 19.949m-36.573 40.479c1.494-.899 8.995-28.549 10.764-29.004 3.867-1 5.845-3.893 5.027-8.149m-32.416-13.3c2.327 6.162 8.138 44.848 12.53 50.817m-105.21-199.604c-1.245 5.958-3.693 11.265-7.853 15.834-2.482 2.727-3.881 6.069-3.369 9.935m156.269 51.534c-3.864 11.391-9.412 21.367-21.611 25.768m-43.225 44.885c2.47 6.197 3.747 13.448 12.468 14.13"/><path opacity=".7" fill-rule="evenodd" clip-rule="evenodd" d="M362.713 732.389c-5.782 5.435-11.554 10.875-13.3 19.117"/><path fill-rule="evenodd" clip-rule="evenodd" d="M474.095 774.781c.432 6.701 4.792 11.721 7.481 17.454"/><path opacity=".7" fill-rule="evenodd" clip-rule="evenodd" d="M600.438 749.845c-4.865-4.641-9.018-10.381-16.624-10.808m16.624-.831c-4.865-4.64-7.354-10.382-14.961-10.807m31.588 45.722c-4.866-4.641-7.354-10.381-14.963-10.807m1.663 15.795c-4.866-4.64-7.356-10.382-14.963-10.807"/><path fill-rule="evenodd" clip-rule="evenodd" d="M604.596 805.534c-.369 6.884-3.022 11.641-10.806 11.637m-33.25 5.819c-3.558 6.769-3.6 14.484-5.816 21.611m-37.822-167.074c.861 2.332 2.425 4.052 4.219 5.575 3.586 3.045 8.09 5.312 9.729 10.14.065.187 3.862 1.035 5.587-.752m-31.942-16.039c-2.644-2.246 9.887 10.605 9.729 10.141m-1.062 149.698c-1.815 6.456-2.244 12.503 2.332 18.412 1.966 2.54 3.977 4.022 6.811 4.862m-25.768-68.16c5.896 5.239 8.442 12.827 11.967 19.389 2.363 4.398-.053 11.367-.329 17.184m-78.965 4.989c.478 5.761 4.387 9.993 6.955 15.204-2.59 3.236-7.682 19.044-10.281 22.292m-60.677-173.816c.497 6.855-.264 13.412-4.571 19.118m252.271 77.303c-2.098 4.36-2.548 11.059-8.325 11.297-5.676.234-6.058-6.885-9.074-10.514-.407-.491-.056-1.615-.056-2.446m-2.077-92.265c.502 4.034.615 7.835 4.39 11.021 2.618 2.207 6.116 5.13 5.169 9.762m-221.103 84.782c.65 4.606-.763 8.477-4.157 11.636m311.704-88.109c-.431 4.076.197 7.827 3.326 10.806"/></g></svg>