<svg height="48" viewBox="0 0 48 48" width="48" xmlns="http://www.w3.org/2000/svg"><path clip-rule="evenodd" d="M24.804 43.648L24 44l-.804-.352C12.862 37.313 2 22.893 2 14.884 2.035 8.326 7.404 3.002 14 3.002c4.169 0 7.849 2.128 10 5.349a12.014 12.014 0 0 1 10-5.349c6.596 0 11.965 5.324 12 11.882 0 8.009-10.862 22.429-21.196 28.764zM34 4.993a10.006 10.006 0 0 0-8.335 4.46L24 11.946l-1.665-2.494A10.008 10.008 0 0 0 14 4.993c-5.484 0-9.971 4.442-10 9.891 0 7.064 10.234 20.808 20 26.917 9.766-6.109 20-19.852 20-26.907-.029-5.459-4.516-9.901-10-9.901z" fill="#D0021B" fill-rule="evenodd"/></svg>