<svg id="Layer_1" xmlns="http://www.w3.org/2000/svg" viewBox="0 0 79.2 76.5"><style>.st0{fill:none;stroke:#f0c958;stroke-width:5;stroke-linecap:round;stroke-linejoin:round;stroke-miterlimit:10}</style><path class="st0" d="M57.5 72.3c-2-1.1-19-10.6-19-10.6s-17.7 8.9-19.2 9.6c-1.5.8-5.1-.4-4.4-3.6.6-3.1 4.1-21 4.1-21S5.9 33.6 4 31.8s-1.2-5.1 2.1-5.5S27 23.7 27 23.7 36.3 6 37.1 4.4c.9-1.6 4.4-1.7 5.2.1.9 1.9 9.2 19.7 9.2 19.7s20 3.3 21.7 3.7c2.6.5 2.8 3.7 1.2 5.1-1.6 1.4-15.8 14.7-15.8 14.7s3 19.8 3.3 22.2c.3 2.5-2.4 3.5-4.4 2.4z" id="Layer_1_1_"/></svg>